<?xml version="1.0" encoding="iso-8859-1"?>
<!-- Generator: Adobe Illustrator 19.0.0, SVG Export Plug-In . SVG Version: 6.00 Build 0)  -->
<svg version="1.1" id="Capa_1" xmlns="http://www.w3.org/2000/svg" xmlns:xlink="http://www.w3.org/1999/xlink" x="0px" y="0px"
	 viewBox="0 0 512 512" style="enable-background:new 0 0 512 512;" xml:space="preserve">
<g>
	<g>
		<path d="M402.869,208.058c-19.809-11.332-35.693-29.002-44.726-49.754C340.084,116.811,299.181,90,253.941,90
			c-45.801,0-86.905,27.269-104.717,69.47c-8.864,21.003-23.888,38.493-43.449,50.579c-27.634,17.074-43.483,42.807-43.483,70.6
			c0,33.705,23.518,64.223,61.374,79.643c19.734,8.039,36.726,22.62,49.14,42.169c17.743,27.943,48.074,44.625,81.135,44.625
			c32.976,0,63.264-16.616,81.021-44.449c11.834-18.547,30.055-33.294,51.307-41.523c39.13-15.15,63.438-45.982,63.438-80.464
			C449.707,251.974,432.197,224.836,402.869,208.058z M379.049,342.463c-25.194,9.755-46.839,27.305-60.947,49.416
			c-14.064,22.046-38.05,35.207-64.16,35.207c-26.178,0-50.197-13.214-64.252-35.346c-14.654-23.076-34.875-40.356-58.478-49.97
			c-30.175-12.291-48.919-35.712-48.919-61.121c0-20.706,12.391-40.236,33.995-53.585c23.115-14.282,40.876-34.966,51.363-59.817
			C182.328,132.471,216.199,110,253.941,110c37.279,0,70.982,22.093,85.864,56.287c10.741,24.675,29.611,45.675,53.132,59.132
			c23.368,13.367,36.77,33.499,36.77,55.231C429.707,306.68,410.296,330.364,379.049,342.463z"/>
	</g>
</g>
<g>
	<g>
		<path d="M256,176.475c-49.423,0-89.631,40.208-89.631,89.631s40.208,89.631,89.631,89.631c49.423,0,89.631-40.208,89.631-89.631
			C345.631,216.683,305.423,176.475,256,176.475z M256,335.737c-38.395,0-69.631-31.236-69.631-69.631
			c0-38.395,31.236-69.631,69.631-69.631s69.631,31.236,69.631,69.631C325.631,304.501,294.395,335.737,256,335.737z"/>
	</g>
</g>
<g>
	<g>
		<path d="M439.101,420.64c-3.941-3.868-10.272-3.81-14.142,0.13c-0.007,0.008-0.085,0.088-0.093,0.095
			c-3.905,3.906-3.905,10.238,0,14.143c1.953,1.952,4.511,2.929,7.071,2.929c2.559,0,5.118-0.977,7.072-2.93l0.19-0.193
			l-7.104-7.038l7.136,7.006C443.1,430.841,443.042,424.509,439.101,420.64z"/>
	</g>
</g>
<g>
	<g>
		<path d="M437.02,74.981C388.667,26.628,324.38,0,256,0S123.333,26.628,74.98,74.981C26.629,123.333,0,187.62,0,256
			s26.629,132.667,74.98,181.02C123.333,485.371,187.62,512,256,512c54.472,0,106.479-16.881,150.401-48.817
			c4.467-3.248,5.455-9.502,2.207-13.969c-3.248-4.467-9.502-5.455-13.969-2.207C354.158,476.441,306.218,492,256,492
			C125.869,492,20,386.131,20,256S125.869,20,256,20s236,105.869,236,236c0,49.94-15.402,97.665-44.541,138.014
			c-3.233,4.478-2.225,10.729,2.253,13.962c4.478,3.231,10.728,2.225,13.962-2.253C495.289,361.944,512,310.171,512,256
			C512,187.62,485.371,123.333,437.02,74.981z"/>
	</g>
</g>
<g>
	<g>
		<path d="M399.357,113.688C361.146,75.198,310.234,54,256,54c-14.992,0-29.948,1.651-44.45,4.909
			c-5.388,1.21-8.775,6.559-7.565,11.948c1.21,5.388,6.553,8.777,11.948,7.565C228.999,75.488,242.479,74,256,74
			c48.865,0,94.736,19.099,129.164,53.779c1.955,1.97,4.526,2.955,7.097,2.955c2.547,0,5.094-0.967,7.044-2.904
			C403.225,123.939,403.248,117.607,399.357,113.688z"/>
	</g>
</g>
<g>
	<g>
		<path d="M421.569,139.93c-1.859-1.86-4.439-2.93-7.069-2.93s-5.21,1.07-7.07,2.93c-1.861,1.86-2.93,4.44-2.93,7.07
			s1.07,5.21,2.93,7.07c1.86,1.86,4.44,2.93,7.07,2.93s5.21-1.07,7.069-2.93c1.861-1.86,2.931-4.44,2.931-7.07
			S423.429,141.79,421.569,139.93z"/>
	</g>
</g>
<g>
	<g>
		<path d="M389.569,268.43c-1.859-1.861-4.439-2.93-7.069-2.93s-5.209,1.07-7.07,2.93c-1.861,1.86-2.93,4.44-2.93,7.07
			s1.07,5.21,2.93,7.069c1.86,1.861,4.44,2.931,7.07,2.931s5.21-1.07,7.069-2.931c1.861-1.859,2.931-4.439,2.931-7.069
			S391.429,270.29,389.569,268.43z"/>
	</g>
</g>
<g>
	<g>
		<path d="M135.069,268.43c-1.859-1.861-4.439-2.93-7.069-2.93s-5.209,1.07-7.07,2.93c-1.861,1.86-2.93,4.44-2.93,7.07
			s1.07,5.21,2.93,7.069c1.86,1.861,4.44,2.931,7.07,2.931s5.21-1.07,7.069-2.931C136.93,280.71,138,278.13,138,275.5
			S136.929,270.29,135.069,268.43z"/>
	</g>
</g>
<g>
	<g>
		<path d="M89.399,162.93C87.54,161.07,84.96,160,82.33,160s-5.21,1.07-7.07,2.93c-1.861,1.86-2.93,4.44-2.93,7.07
			s1.07,5.21,2.93,7.07S79.7,180,82.33,180s5.21-1.07,7.069-2.93c1.87-1.86,2.931-4.44,2.931-7.07S91.269,164.79,89.399,162.93z"/>
	</g>
</g>
<g>
	<g>
		<path d="M135.069,109.26c-1.859-1.86-4.439-2.93-7.069-2.93s-5.209,1.07-7.07,2.93c-1.861,1.86-2.93,4.44-2.93,7.07
			c0,2.64,1.07,5.21,2.93,7.07c1.86,1.87,4.44,2.93,7.07,2.93s5.21-1.06,7.069-2.93c1.861-1.86,2.931-4.43,2.931-7.07
			C138,113.7,136.929,111.12,135.069,109.26z"/>
	</g>
</g>
<g>
	<g>
		<path d="M131.56,148.93c-1.86-1.86-4.43-2.93-7.06-2.93c-2.641,0-5.221,1.07-7.08,2.93c-1.86,1.86-2.92,4.44-2.92,7.07
			s1.06,5.21,2.92,7.07c1.859,1.86,4.439,2.93,7.08,2.93c2.63,0,5.2-1.07,7.06-2.93c1.87-1.86,2.931-4.44,2.931-7.07
			S133.43,150.79,131.56,148.93z"/>
	</g>
</g>
<g>
	<g>
		<path d="M208.069,156.59c-1.859-1.86-4.439-2.92-7.069-2.92s-5.21,1.06-7.07,2.92c-1.861,1.87-2.93,4.45-2.93,7.08
			s1.07,5.21,2.93,7.07s4.44,2.93,7.07,2.93s5.21-1.07,7.069-2.93c1.861-1.86,2.931-4.44,2.931-7.07S209.929,158.46,208.069,156.59z
			"/>
	</g>
</g>
<g>
</g>
<g>
</g>
<g>
</g>
<g>
</g>
<g>
</g>
<g>
</g>
<g>
</g>
<g>
</g>
<g>
</g>
<g>
</g>
<g>
</g>
<g>
</g>
<g>
</g>
<g>
</g>
<g>
</g>
</svg>
